<svg width="600" height="600" viewBox="0 0 600 600" fill="none" xmlns="http://www.w3.org/2000/svg">
<rect width="600" height="600" fill="#2E2E2E"/>
<path d="M327.818 317H317.591L329.114 282.091H342.068L353.591 317H343.364L335.727 291.704H335.454L327.818 317ZM325.909 303.227H345.136V310.318H325.909V303.227Z" fill="white"/>
<path d="M299.182 317H285.75V282.091H299.045C302.636 282.091 305.739 282.79 308.352 284.187C310.977 285.574 313 287.574 314.42 290.187C315.852 292.79 316.568 295.909 316.568 299.545C316.568 303.182 315.858 306.307 314.438 308.92C313.017 311.523 311.006 313.523 308.403 314.92C305.801 316.307 302.727 317 299.182 317ZM295.227 308.954H298.841C300.568 308.954 302.04 308.676 303.256 308.119C304.483 307.562 305.415 306.602 306.051 305.239C306.699 303.875 307.023 301.977 307.023 299.545C307.023 297.114 306.693 295.216 306.034 293.852C305.386 292.489 304.432 291.528 303.17 290.972C301.92 290.415 300.386 290.136 298.568 290.136H295.227V308.954Z" fill="white"/>
<path d="M256.615 317H246.388L257.91 282.091H270.865L282.388 317H272.16L264.524 291.704H264.251L256.615 317ZM254.706 303.227H273.933V310.318H254.706V303.227Z" fill="white"/>
</svg>
