<svg width="600" height="600" viewBox="0 0 600 600" fill="none" xmlns="http://www.w3.org/2000/svg">
<rect width="600" height="600" fill="#535E41"/>
<path d="M435.125 290.818V297.636H417.875V290.818H435.125ZM421.216 284.545H430.625V308.58C430.625 308.943 430.688 309.25 430.812 309.5C430.938 309.739 431.131 309.92 431.392 310.045C431.653 310.159 431.989 310.216 432.398 310.216C432.682 310.216 433.011 310.182 433.386 310.114C433.773 310.045 434.057 309.989 434.239 309.943L435.602 316.557C435.182 316.682 434.58 316.835 433.795 317.017C433.023 317.199 432.102 317.318 431.034 317.375C428.875 317.489 427.062 317.267 425.597 316.71C424.131 316.142 423.028 315.25 422.29 314.034C421.551 312.818 421.193 311.295 421.216 309.466V284.545Z" fill="white"/>
<path d="M397.621 317V290.818H406.757V295.795H407.03C407.507 293.955 408.263 292.608 409.297 291.756C410.343 290.903 411.564 290.477 412.962 290.477C413.371 290.477 413.774 290.511 414.172 290.58C414.581 290.636 414.973 290.722 415.348 290.835V298.864C414.882 298.705 414.309 298.585 413.627 298.506C412.945 298.426 412.36 298.386 411.871 298.386C410.951 298.386 410.121 298.597 409.382 299.017C408.655 299.426 408.081 300.006 407.661 300.756C407.24 301.494 407.03 302.364 407.03 303.364V317H397.621Z" fill="white"/>
<path d="M380.963 317.477C378.167 317.477 375.758 316.943 373.736 315.875C371.724 314.795 370.173 313.25 369.082 311.239C368.003 309.216 367.463 306.795 367.463 303.977C367.463 301.273 368.008 298.909 369.099 296.886C370.19 294.864 371.73 293.29 373.719 292.165C375.707 291.04 378.054 290.477 380.758 290.477C382.736 290.477 384.525 290.784 386.128 291.398C387.73 292.011 389.099 292.903 390.236 294.074C391.372 295.233 392.247 296.642 392.861 298.301C393.474 299.96 393.781 301.83 393.781 303.909V306.091H370.395V300.909H385.122C385.111 300.159 384.917 299.5 384.542 298.932C384.179 298.352 383.684 297.903 383.059 297.585C382.446 297.256 381.747 297.091 380.963 297.091C380.202 297.091 379.503 297.256 378.866 297.585C378.23 297.903 377.719 298.347 377.332 298.915C376.957 299.483 376.758 300.148 376.736 300.909V306.5C376.736 307.341 376.912 308.091 377.264 308.75C377.616 309.409 378.122 309.926 378.781 310.301C379.44 310.676 380.236 310.864 381.167 310.864C381.815 310.864 382.406 310.773 382.94 310.591C383.486 310.409 383.952 310.148 384.338 309.807C384.724 309.455 385.008 309.034 385.19 308.545H393.781C393.486 310.364 392.787 311.943 391.684 313.284C390.582 314.614 389.122 315.648 387.304 316.386C385.497 317.114 383.383 317.477 380.963 317.477Z" fill="white"/>
<path d="M337.34 326.818V290.818H346.681V295.386H346.885C347.226 294.5 347.726 293.688 348.385 292.949C349.044 292.199 349.863 291.602 350.84 291.159C351.817 290.705 352.953 290.477 354.249 290.477C355.976 290.477 357.618 290.938 359.175 291.858C360.743 292.778 362.016 294.227 362.993 296.205C363.982 298.182 364.476 300.75 364.476 303.909C364.476 306.932 364.005 309.438 363.061 311.426C362.13 313.415 360.88 314.898 359.311 315.875C357.755 316.852 356.044 317.341 354.181 317.341C352.953 317.341 351.857 317.142 350.891 316.744C349.936 316.335 349.118 315.784 348.436 315.091C347.766 314.386 347.249 313.591 346.885 312.705H346.749V326.818H337.34ZM346.544 303.909C346.544 305.182 346.709 306.284 347.039 307.216C347.38 308.136 347.857 308.852 348.471 309.364C349.096 309.864 349.84 310.114 350.703 310.114C351.567 310.114 352.3 309.869 352.902 309.381C353.516 308.881 353.982 308.17 354.3 307.25C354.63 306.318 354.794 305.205 354.794 303.909C354.794 302.614 354.63 301.506 354.3 300.585C353.982 299.653 353.516 298.943 352.902 298.455C352.3 297.955 351.567 297.705 350.703 297.705C349.84 297.705 349.096 297.955 348.471 298.455C347.857 298.943 347.38 299.653 347.039 300.585C346.709 301.506 346.544 302.614 346.544 303.909Z" fill="white"/>
<path d="M316.812 290.818L320.63 298.932L324.653 290.818H333.994L326.971 303.909L334.335 317H325.062L320.63 308.682L316.335 317H306.926L314.358 303.909L307.403 290.818H316.812Z" fill="white"/>
<path d="M278.703 317V282.091H303.862V289.727H288.18V295.727H302.567V303.364H288.18V309.364H303.794V317H278.703Z" fill="white"/>
<path d="M248.213 317.409C246.543 317.409 245.065 317.136 243.781 316.591C242.509 316.034 241.509 315.193 240.781 314.068C240.054 312.943 239.69 311.511 239.69 309.773C239.69 308.341 239.935 307.119 240.423 306.108C240.912 305.085 241.594 304.25 242.469 303.602C243.344 302.955 244.361 302.46 245.52 302.119C246.69 301.778 247.952 301.557 249.304 301.455C250.77 301.341 251.946 301.205 252.832 301.045C253.73 300.875 254.378 300.642 254.776 300.347C255.173 300.04 255.372 299.636 255.372 299.136V299.068C255.372 298.386 255.111 297.864 254.588 297.5C254.065 297.136 253.395 296.955 252.577 296.955C251.679 296.955 250.946 297.153 250.378 297.551C249.821 297.938 249.486 298.534 249.372 299.341H240.713C240.827 297.75 241.332 296.284 242.23 294.943C243.139 293.591 244.463 292.511 246.202 291.705C247.94 290.886 250.111 290.477 252.713 290.477C254.588 290.477 256.27 290.699 257.759 291.142C259.247 291.574 260.514 292.182 261.56 292.966C262.605 293.739 263.401 294.648 263.946 295.693C264.503 296.727 264.781 297.852 264.781 299.068V317H255.986V313.318H255.781C255.259 314.295 254.622 315.085 253.872 315.688C253.134 316.29 252.287 316.727 251.332 317C250.389 317.273 249.35 317.409 248.213 317.409ZM251.281 311.477C251.997 311.477 252.668 311.33 253.293 311.034C253.929 310.739 254.446 310.313 254.844 309.756C255.242 309.199 255.44 308.523 255.44 307.727V305.545C255.19 305.648 254.923 305.744 254.639 305.835C254.367 305.926 254.071 306.011 253.753 306.091C253.446 306.17 253.117 306.244 252.764 306.313C252.423 306.381 252.065 306.443 251.69 306.5C250.963 306.614 250.367 306.801 249.901 307.063C249.446 307.313 249.105 307.625 248.878 308C248.662 308.364 248.554 308.773 248.554 309.227C248.554 309.955 248.81 310.511 249.321 310.898C249.832 311.284 250.486 311.477 251.281 311.477Z" fill="white"/>
<path d="M224.422 317.477C221.581 317.477 219.149 316.915 217.126 315.79C215.104 314.653 213.552 313.074 212.473 311.051C211.393 309.017 210.854 306.659 210.854 303.977C210.854 301.295 211.393 298.943 212.473 296.92C213.552 294.886 215.104 293.307 217.126 292.182C219.149 291.045 221.581 290.477 224.422 290.477C226.99 290.477 229.211 290.943 231.086 291.875C232.973 292.795 234.433 294.102 235.467 295.795C236.501 297.477 237.024 299.455 237.035 301.727H228.308C228.183 300.352 227.785 299.307 227.115 298.591C226.456 297.864 225.604 297.5 224.558 297.5C223.74 297.5 223.024 297.739 222.41 298.216C221.797 298.682 221.319 299.392 220.979 300.347C220.638 301.29 220.467 302.477 220.467 303.909C220.467 305.341 220.638 306.534 220.979 307.489C221.319 308.432 221.797 309.142 222.41 309.619C223.024 310.085 223.74 310.318 224.558 310.318C225.251 310.318 225.865 310.159 226.399 309.841C226.933 309.511 227.365 309.034 227.694 308.409C228.035 307.773 228.24 307 228.308 306.091H237.035C237.001 308.398 236.473 310.409 235.45 312.125C234.427 313.83 232.979 315.148 231.104 316.08C229.24 317.011 227.013 317.477 224.422 317.477Z" fill="white"/>
<path d="M190.186 302.273V317H180.777V290.818H189.709V295.795H189.982C190.55 294.136 191.55 292.835 192.982 291.892C194.425 290.949 196.107 290.477 198.027 290.477C199.88 290.477 201.488 290.903 202.851 291.756C204.226 292.597 205.289 293.756 206.039 295.233C206.8 296.71 207.175 298.398 207.164 300.295V317H197.755V302.273C197.766 300.977 197.436 299.96 196.766 299.222C196.107 298.483 195.186 298.114 194.005 298.114C193.232 298.114 192.556 298.284 191.976 298.625C191.408 298.955 190.971 299.432 190.664 300.057C190.357 300.67 190.198 301.409 190.186 302.273Z" fill="white"/>
<path d="M176.149 282.091V317H166.672V282.091H176.149Z" fill="white"/>
</svg>
