<svg width="600" height="600" viewBox="0 0 600 600" fill="none" xmlns="http://www.w3.org/2000/svg">
<rect width="600" height="600" fill="#373FCC"/>
<path d="M458.717 299.341H450.058C450.012 298.807 449.825 298.347 449.495 297.96C449.166 297.574 448.74 297.278 448.217 297.074C447.706 296.858 447.137 296.75 446.512 296.75C445.706 296.75 445.012 296.898 444.433 297.193C443.853 297.489 443.569 297.909 443.581 298.455C443.569 298.841 443.734 299.199 444.075 299.528C444.427 299.858 445.103 300.114 446.103 300.295L451.421 301.25C454.103 301.739 456.098 302.563 457.404 303.722C458.723 304.869 459.387 306.409 459.399 308.341C459.387 310.205 458.831 311.824 457.728 313.199C456.637 314.563 455.143 315.619 453.245 316.369C451.359 317.108 449.206 317.477 446.785 317.477C442.785 317.477 439.654 316.659 437.393 315.023C435.143 313.386 433.887 311.227 433.626 308.545H442.967C443.092 309.375 443.501 310.017 444.194 310.472C444.899 310.915 445.785 311.136 446.853 311.136C447.717 311.136 448.427 310.989 448.984 310.693C449.552 310.398 449.842 309.977 449.853 309.432C449.842 308.932 449.592 308.534 449.103 308.239C448.626 307.943 447.876 307.705 446.853 307.523L442.217 306.705C439.546 306.239 437.546 305.352 436.217 304.045C434.887 302.739 434.228 301.057 434.24 299C434.228 297.182 434.706 295.642 435.671 294.381C436.649 293.108 438.041 292.142 439.848 291.483C441.666 290.813 443.819 290.477 446.308 290.477C450.092 290.477 453.075 291.261 455.257 292.83C457.45 294.398 458.603 296.568 458.717 299.341Z" fill="white"/>
<path d="M430.498 299.341H421.839C421.794 298.807 421.606 298.347 421.277 297.96C420.947 297.574 420.521 297.278 419.998 297.074C419.487 296.858 418.919 296.75 418.294 296.75C417.487 296.75 416.794 296.898 416.214 297.193C415.635 297.489 415.35 297.909 415.362 298.455C415.35 298.841 415.515 299.199 415.856 299.528C416.208 299.858 416.885 300.114 417.885 300.295L423.203 301.25C425.885 301.739 427.879 302.563 429.186 303.722C430.504 304.869 431.169 306.409 431.18 308.341C431.169 310.205 430.612 311.824 429.51 313.199C428.419 314.563 426.924 315.619 425.027 316.369C423.14 317.108 420.987 317.477 418.566 317.477C414.566 317.477 411.436 316.659 409.174 315.023C406.924 313.386 405.669 311.227 405.407 308.545H414.748C414.873 309.375 415.282 310.017 415.975 310.472C416.68 310.915 417.566 311.136 418.635 311.136C419.498 311.136 420.208 310.989 420.765 310.693C421.333 310.398 421.623 309.977 421.635 309.432C421.623 308.932 421.373 308.534 420.885 308.239C420.407 307.943 419.657 307.705 418.635 307.523L413.998 306.705C411.328 306.239 409.328 305.352 407.998 304.045C406.669 302.739 406.01 301.057 406.021 299C406.01 297.182 406.487 295.642 407.453 294.381C408.43 293.108 409.822 292.142 411.629 291.483C413.447 290.813 415.6 290.477 418.089 290.477C421.873 290.477 424.856 291.261 427.038 292.83C429.231 294.398 430.385 296.568 430.498 299.341Z" fill="white"/>
<path d="M389.908 317.477C387.113 317.477 384.704 316.943 382.681 315.875C380.67 314.795 379.118 313.25 378.028 311.239C376.948 309.216 376.408 306.795 376.408 303.977C376.408 301.273 376.954 298.909 378.045 296.886C379.135 294.864 380.675 293.29 382.664 292.165C384.653 291.04 386.999 290.477 389.704 290.477C391.681 290.477 393.471 290.784 395.073 291.398C396.675 292.011 398.045 292.903 399.181 294.074C400.317 295.233 401.192 296.642 401.806 298.301C402.42 299.96 402.726 301.83 402.726 303.909V306.091H379.34V300.909H394.067C394.056 300.159 393.863 299.5 393.488 298.932C393.124 298.352 392.63 297.903 392.005 297.585C391.391 297.256 390.692 297.091 389.908 297.091C389.147 297.091 388.448 297.256 387.812 297.585C387.175 297.903 386.664 298.347 386.278 298.915C385.903 299.483 385.704 300.148 385.681 300.909V306.5C385.681 307.341 385.857 308.091 386.209 308.75C386.562 309.409 387.067 309.926 387.726 310.301C388.385 310.676 389.181 310.864 390.113 310.864C390.76 310.864 391.351 310.773 391.885 310.591C392.431 310.409 392.897 310.148 393.283 309.807C393.67 309.455 393.954 309.034 394.135 308.545H402.726C402.431 310.364 401.732 311.943 400.63 313.284C399.528 314.614 398.067 315.648 396.249 316.386C394.442 317.114 392.329 317.477 389.908 317.477Z" fill="white"/>
<path d="M349.805 317V282.091H359.282V309.364H373.396V317H349.805Z" fill="white"/>
<path d="M319.566 317V290.818H328.703V295.795H328.975C329.453 293.955 330.208 292.608 331.243 291.756C332.288 290.903 333.51 290.477 334.907 290.477C335.316 290.477 335.72 290.511 336.118 290.58C336.527 290.636 336.919 290.722 337.294 290.835V298.864C336.828 298.705 336.254 298.585 335.572 298.506C334.89 298.426 334.305 298.386 333.816 298.386C332.896 298.386 332.066 298.597 331.328 299.017C330.6 299.426 330.027 300.006 329.606 300.756C329.186 301.494 328.975 302.364 328.975 303.364V317H319.566Z" fill="white"/>
<path d="M302.18 317.477C299.339 317.477 296.907 316.915 294.884 315.79C292.861 314.653 291.31 313.074 290.231 311.051C289.151 309.017 288.611 306.659 288.611 303.977C288.611 301.295 289.151 298.943 290.231 296.92C291.31 294.886 292.861 293.307 294.884 292.182C296.907 291.045 299.339 290.477 302.18 290.477C305.02 290.477 307.452 291.045 309.475 292.182C311.498 293.307 313.049 294.886 314.128 296.92C315.208 298.943 315.748 301.295 315.748 303.977C315.748 306.659 315.208 309.017 314.128 311.051C313.049 313.074 311.498 314.653 309.475 315.79C307.452 316.915 305.02 317.477 302.18 317.477ZM302.248 310.523C303.043 310.523 303.731 310.256 304.31 309.722C304.89 309.188 305.339 308.426 305.657 307.438C305.975 306.449 306.134 305.273 306.134 303.909C306.134 302.534 305.975 301.358 305.657 300.381C305.339 299.392 304.89 298.631 304.31 298.097C303.731 297.563 303.043 297.295 302.248 297.295C301.407 297.295 300.685 297.563 300.083 298.097C299.481 298.631 299.02 299.392 298.702 300.381C298.384 301.358 298.225 302.534 298.225 303.909C298.225 305.273 298.384 306.449 298.702 307.438C299.02 308.426 299.481 309.188 300.083 309.722C300.685 310.256 301.407 310.523 302.248 310.523Z" fill="white"/>
<path d="M263.32 317V282.091H287.866V289.727H272.798V295.727H286.366V303.364H272.798V317H263.32Z" fill="white"/>
<path d="M239.7 305.545V290.818H249.109V317H240.177V312.023H239.904C239.336 313.693 238.342 315 236.922 315.943C235.501 316.875 233.814 317.341 231.859 317.341C230.029 317.341 228.427 316.92 227.052 316.079C225.689 315.239 224.626 314.079 223.865 312.602C223.115 311.125 222.734 309.432 222.723 307.523V290.818H232.132V305.545C232.143 306.841 232.473 307.858 233.12 308.597C233.779 309.335 234.7 309.704 235.882 309.704C236.666 309.704 237.342 309.54 237.91 309.21C238.49 308.869 238.933 308.392 239.24 307.778C239.558 307.153 239.711 306.409 239.7 305.545Z" fill="white"/>
<path d="M201.91 317V290.818H211.047V295.795H211.319C211.797 293.955 212.552 292.608 213.586 291.756C214.632 290.903 215.853 290.477 217.251 290.477C217.66 290.477 218.064 290.511 218.461 290.58C218.87 290.636 219.262 290.722 219.637 290.835V298.864C219.172 298.705 218.598 298.585 217.916 298.506C217.234 298.426 216.649 298.386 216.16 298.386C215.24 298.386 214.41 298.597 213.672 299.017C212.944 299.426 212.37 300.006 211.95 300.756C211.529 301.494 211.319 302.364 211.319 303.364V317H201.91Z" fill="white"/>
<path d="M185.252 317.477C182.456 317.477 180.047 316.943 178.025 315.875C176.013 314.795 174.462 313.25 173.371 311.239C172.292 309.216 171.752 306.795 171.752 303.977C171.752 301.273 172.297 298.909 173.388 296.886C174.479 294.864 176.019 293.29 178.008 292.165C179.996 291.04 182.343 290.477 185.047 290.477C187.025 290.477 188.814 290.784 190.417 291.398C192.019 292.011 193.388 292.903 194.525 294.074C195.661 295.233 196.536 296.642 197.15 298.301C197.763 299.96 198.07 301.83 198.07 303.909V306.091H174.684V300.909H189.411C189.4 300.159 189.206 299.5 188.831 298.932C188.468 298.352 187.974 297.903 187.349 297.585C186.735 297.256 186.036 297.091 185.252 297.091C184.491 297.091 183.792 297.256 183.155 297.585C182.519 297.903 182.008 298.347 181.621 298.915C181.246 299.483 181.047 300.148 181.025 300.909V306.5C181.025 307.341 181.201 308.091 181.553 308.75C181.905 309.409 182.411 309.926 183.07 310.301C183.729 310.676 184.525 310.864 185.456 310.864C186.104 310.864 186.695 310.773 187.229 310.591C187.775 310.409 188.241 310.148 188.627 309.807C189.013 309.455 189.297 309.034 189.479 308.545H198.07C197.775 310.364 197.076 311.943 195.974 313.284C194.871 314.614 193.411 315.648 191.593 316.386C189.786 317.114 187.672 317.477 185.252 317.477Z" fill="white"/>
<path d="M141.633 317V282.091H156.701C159.292 282.091 161.559 282.602 163.502 283.625C165.445 284.648 166.957 286.085 168.036 287.937C169.116 289.79 169.656 291.954 169.656 294.432C169.656 296.932 169.099 299.097 167.985 300.926C166.883 302.756 165.332 304.165 163.332 305.153C161.343 306.142 159.019 306.636 156.36 306.636H147.36V299.273H154.451C155.565 299.273 156.513 299.079 157.298 298.693C158.093 298.295 158.701 297.733 159.121 297.006C159.553 296.278 159.769 295.42 159.769 294.432C159.769 293.432 159.553 292.579 159.121 291.875C158.701 291.159 158.093 290.614 157.298 290.239C156.513 289.852 155.565 289.659 154.451 289.659H151.11V317H141.633Z" fill="white"/>
</svg>
